# xmcd
#
# Track frame offsets: 
#        150
#        18208
#        25037
#        42977
#        63009
#        76823
#        96490
#        103299
#        121584
#        149703
#
# Disc length: 2062 seconds
#
# Revision: 1
# Processed by: cddbd v1.5.2PL0 Copyright (c) Steve Scherf et al.
# Submitted via: ExactAudioCopyFreeDBPlugin 1.0
#
DISCID=7b080c0a
DTITLE=Franco Cerri - from cathetus to Cicero
DYEAR=1974
DGENRE=Jazz
TTITLE0=Kraedhacou
TTITLE1=Lei non sa chi suono io
TTITLE2=C'er-rimedio per tutto
TTITLE3=Vacante
TTITLE4=Querce,platani e cerri
TTITLE5=New look
TTITLE6=Lei no sa chi suono io
TTITLE7=E venia da'campi di cerri sentian
TTITLE8=Jcsf (gjsiesef)
TTITLE9=Kraedhacou
EXTD=YEAR: 1974
EXTT0=
EXTT1=
EXTT2=
EXTT3=
EXTT4=
EXTT5=
EXTT6=
EXTT7=
EXTT8=
EXTT9=
PLAYORDER=
